<svg width="20" height="20" viewBox="0 0 20 20" fill="none" xmlns="http://www.w3.org/2000/svg">
<path d="M6.37996 15.5563C5.22678 15.5563 4.29199 16.4912 4.29199 17.6443C4.29199 18.7975 5.22682 19.7323 6.37996 19.7323C7.53313 19.7323 8.46792 18.7974 8.46792 17.6443C8.46796 16.4912 7.53313 15.5563 6.37996 15.5563ZM6.37996 18.8043C5.73931 18.8043 5.21999 18.285 5.21999 17.6443C5.21999 17.0037 5.73931 16.4844 6.37996 16.4844C7.0206 16.4844 7.53992 17.0037 7.53992 17.6443C7.53997 18.285 7.0206 18.8043 6.37996 18.8043Z" fill="white"/>
<path d="M15.1959 15.5563C14.0427 15.5563 13.1079 16.4912 13.1079 17.6443C13.1079 18.7975 14.0427 19.7323 15.1959 19.7323C16.349 19.7323 17.2838 18.7974 17.2838 17.6443C17.2838 16.4912 16.349 15.5563 15.1959 15.5563ZM15.1959 18.8043C14.5552 18.8043 14.0359 18.285 14.0359 17.6443C14.0359 17.0037 14.5552 16.4844 15.1959 16.4844C15.8365 16.4844 16.3558 17.0037 16.3558 17.6443C16.3559 18.285 15.8365 18.8043 15.1959 18.8043Z" fill="white"/>
<path d="M19.9054 3.37645C19.8088 3.2709 19.6766 3.20482 19.5342 3.19083L4.43117 2.98203L4.01358 1.70603C3.71939 0.853041 2.92062 0.277186 2.01838 0.267639H0.463997C0.207731 0.267639 0 0.47537 0 0.731636C0 0.987902 0.207731 1.19563 0.463997 1.19563H2.01838C2.52287 1.20678 2.96711 1.53072 3.13199 2.00764L6.07836 10.8932L5.84639 11.4267C5.58763 12.094 5.66534 12.845 6.05518 13.4451C6.44129 14.0346 7.09086 14.3983 7.79518 14.4195H16.8199C17.0762 14.4195 17.2839 14.2118 17.2839 13.9555C17.2839 13.6993 17.0762 13.4915 16.8199 13.4915H7.79514C7.39739 13.4816 7.03127 13.2723 6.82074 12.9347C6.61257 12.6012 6.5698 12.1904 6.70475 11.8211L6.89037 11.4035L16.6575 10.3827C17.7303 10.2645 18.6129 9.48425 18.8615 8.43392L19.9751 3.77077C20.0253 3.63649 19.9986 3.48546 19.9054 3.37645ZM17.9567 8.22517C17.806 8.90129 17.232 9.40001 16.5415 9.45476L6.89037 10.4523L4.73278 3.91003L18.9542 4.11882L17.9567 8.22517Z" fill="white"/>
</svg>
